<svg width="77" height="9" viewBox="0 0 77 9" fill="none" xmlns="http://www.w3.org/2000/svg">
<path d="M4.848 8.93029C4.064 8.93029 3.348 8.74229 2.7 8.36629C2.06 7.99029 1.552 7.47829 1.176 6.83029C0.808 6.18229 0.624 5.47029 0.624 4.69429C0.624 3.91829 0.808 3.20629 1.176 2.55829C1.552 1.91029 2.064 1.39829 2.712 1.02229C3.36 0.646287 4.08 0.458287 4.872 0.458287C5.664 0.458287 6.38 0.642287 7.02 1.01029C7.668 1.37829 8.176 1.88629 8.544 2.53429C8.912 3.17429 9.096 3.88629 9.096 4.67029C9.096 5.45429 8.908 6.17429 8.532 6.83029C8.156 7.47829 7.644 7.99029 6.996 8.36629C6.348 8.74229 5.632 8.93029 4.848 8.93029ZM4.848 8.48629C5.552 8.48629 6.192 8.31829 6.768 7.98229C7.344 7.63829 7.8 7.17829 8.136 6.60229C8.472 6.01829 8.64 5.37429 8.64 4.67029C8.64 3.96629 8.476 3.33029 8.148 2.76229C7.82 2.18629 7.368 1.73429 6.792 1.40629C6.224 1.07029 5.584 0.902287 4.872 0.902287C4.16 0.902287 3.512 1.07029 2.928 1.40629C2.352 1.74229 1.896 2.20229 1.56 2.78629C1.232 3.36229 1.068 3.99829 1.068 4.69429C1.068 5.39029 1.232 6.03029 1.56 6.61429C1.896 7.19029 2.352 7.64629 2.928 7.98229C3.504 8.31829 4.144 8.48629 4.848 8.48629ZM4.956 7.19029C4.484 7.19029 4.056 7.08629 3.672 6.87829C3.296 6.66229 3 6.36629 2.784 5.99029C2.568 5.60629 2.46 5.17429 2.46 4.69429C2.46 4.21429 2.568 3.78629 2.784 3.41029C3 3.02629 3.296 2.73029 3.672 2.52229C4.056 2.30629 4.484 2.19829 4.956 2.19829C5.364 2.19829 5.732 2.28229 6.06 2.45029C6.396 2.61029 6.664 2.83429 6.864 3.12229L6.348 3.50629C6.18 3.27429 5.976 3.10229 5.736 2.99029C5.496 2.87829 5.232 2.82229 4.944 2.82229C4.424 2.82229 3.992 2.99429 3.648 3.33829C3.312 3.68229 3.144 4.13429 3.144 4.69429C3.144 5.25429 3.312 5.70629 3.648 6.05029C3.992 6.39429 4.424 6.56629 4.944 6.56629C5.232 6.56629 5.496 6.51029 5.736 6.39829C5.976 6.28629 6.18 6.11429 6.348 5.88229L6.864 6.25429C6.664 6.55029 6.396 6.78229 6.06 6.95029C5.732 7.11029 5.364 7.19029 4.956 7.19029ZM17.8598 8.96629C17.0278 8.96629 16.2758 8.78229 15.6038 8.41429C14.9398 8.04629 14.4158 7.53829 14.0318 6.89029C13.6558 6.23429 13.4678 5.50229 13.4678 4.69429C13.4678 3.88629 13.6558 3.15829 14.0318 2.51029C14.4158 1.85429 14.9438 1.34229 15.6158 0.974287C16.2878 0.606287 17.0398 0.422287 17.8718 0.422287C18.4958 0.422287 19.0718 0.526287 19.5998 0.734287C20.1278 0.942287 20.5758 1.24629 20.9438 1.64629L20.3798 2.21029C19.7238 1.54629 18.8958 1.21429 17.8958 1.21429C17.2318 1.21429 16.6278 1.36629 16.0838 1.67029C15.5398 1.97429 15.1118 2.39029 14.7998 2.91829C14.4958 3.44629 14.3438 4.03829 14.3438 4.69429C14.3438 5.35029 14.4958 5.94229 14.7998 6.47029C15.1118 6.99829 15.5398 7.41429 16.0838 7.71829C16.6278 8.02229 17.2318 8.17429 17.8958 8.17429C18.9038 8.17429 19.7318 7.83829 20.3798 7.16629L20.9438 7.73029C20.5758 8.13029 20.1238 8.43829 19.5878 8.65429C19.0598 8.86229 18.4838 8.96629 17.8598 8.96629ZM26.1973 8.96629C25.1093 8.96629 24.2613 8.65429 23.6533 8.03029C23.0453 7.40629 22.7413 6.49829 22.7413 5.30629V0.494287H23.6293V5.27029C23.6293 6.24629 23.8493 6.97429 24.2893 7.45429C24.7293 7.93429 25.3653 8.17429 26.1973 8.17429C27.0373 8.17429 27.6773 7.93429 28.1173 7.45429C28.5573 6.97429 28.7773 6.24629 28.7773 5.27029V0.494287H29.6413V5.30629C29.6413 6.49829 29.3373 7.40629 28.7293 8.03029C28.1293 8.65429 27.2853 8.96629 26.1973 8.96629ZM33.7852 1.26229H30.8332V0.494287H37.6252V1.26229H34.6732V8.89429H33.7852V1.26229ZM44.9838 8.12629V8.89429H39.0438V0.494287H44.8038V1.26229H39.9318V4.25029H44.2758V5.00629H39.9318V8.12629H44.9838ZM52.5278 8.96629C51.9038 8.96629 51.3038 8.86629 50.7278 8.66629C50.1598 8.46629 49.7198 8.20229 49.4078 7.87429L49.7558 7.19029C50.0598 7.49429 50.4638 7.74229 50.9678 7.93429C51.4718 8.11829 51.9918 8.21029 52.5278 8.21029C53.2798 8.21029 53.8438 8.07429 54.2198 7.80229C54.5958 7.52229 54.7838 7.16229 54.7838 6.72229C54.7838 6.38629 54.6798 6.11829 54.4718 5.91829C54.2718 5.71829 54.0238 5.56629 53.7278 5.46229C53.4318 5.35029 53.0198 5.23029 52.4918 5.10229C51.8598 4.94229 51.3558 4.79029 50.9798 4.64629C50.6038 4.49429 50.2798 4.26629 50.0078 3.96229C49.7438 3.65829 49.6118 3.24629 49.6118 2.72629C49.6118 2.30229 49.7238 1.91829 49.9478 1.57429C50.1718 1.22229 50.5158 0.942287 50.9798 0.734287C51.4438 0.526287 52.0198 0.422287 52.7078 0.422287C53.1878 0.422287 53.6558 0.490287 54.1118 0.626287C54.5758 0.754287 54.9758 0.934287 55.3118 1.16629L55.0117 1.87429C54.6598 1.64229 54.2838 1.47029 53.8838 1.35829C53.4838 1.23829 53.0918 1.17829 52.7078 1.17829C51.9718 1.17829 51.4158 1.32229 51.0398 1.61029C50.6718 1.89029 50.4878 2.25429 50.4878 2.70229C50.4878 3.03829 50.5878 3.31029 50.7878 3.51829C50.9958 3.71829 51.2518 3.87429 51.5558 3.98629C51.8678 4.09029 52.2838 4.20629 52.8038 4.33429C53.4198 4.48629 53.9158 4.63829 54.2918 4.79029C54.6758 4.93429 54.9998 5.15829 55.2638 5.46229C55.5278 5.75829 55.6598 6.16229 55.6598 6.67429C55.6598 7.09829 55.5438 7.48629 55.3118 7.83829C55.0878 8.18229 54.7398 8.45829 54.2678 8.66629C53.7958 8.86629 53.2158 8.96629 52.5278 8.96629ZM60.9786 8.96629C59.8906 8.96629 59.0426 8.65429 58.4346 8.03029C57.8266 7.40629 57.5226 6.49829 57.5226 5.30629V0.494287H58.4106V5.27029C58.4106 6.24629 58.6306 6.97429 59.0706 7.45429C59.5106 7.93429 60.1466 8.17429 60.9786 8.17429C61.8186 8.17429 62.4586 7.93429 62.8986 7.45429C63.3386 6.97429 63.5586 6.24629 63.5586 5.27029V0.494287H64.4226V5.30629C64.4226 6.49829 64.1186 7.40629 63.5106 8.03029C62.9106 8.65429 62.0666 8.96629 60.9786 8.96629ZM67.0985 0.494287H67.9865V8.89429H67.0985V0.494287ZM72.3516 1.26229H69.3996V0.494287H76.1916V1.26229H73.2396V8.89429H72.3516V1.26229Z" fill="#140202"/>
</svg>
