<svg width="27" height="27" viewBox="0 0 27 27" fill="none" xmlns="http://www.w3.org/2000/svg">
<path d="M13.4997 0.245605C6.18429 0.245605 0.253891 6.17965 0.253891 13.4992C0.253891 20.8186 6.18429 26.7529 13.4997 26.7529C20.8153 26.7529 26.7459 20.8186 26.7459 13.4992C26.7459 6.17965 20.8153 0.245605 13.4997 0.245605ZM20.9167 16.4855C20.9167 17.5044 20.0913 18.3303 19.0732 18.3303C19.0732 18.3303 17.4986 18.5595 13.4092 18.5595C9.29618 18.5595 7.85028 18.3303 7.85028 18.3303C6.832 18.3303 6.00633 17.5044 6.00633 16.4855V10.3981C6.00633 9.3795 6.83177 8.55336 7.85028 8.55336C7.85028 8.55336 9.29618 8.32419 13.4046 8.32419C17.4986 8.32419 19.0732 8.55336 19.0732 8.55336C20.0913 8.55336 20.9167 9.37927 20.9167 10.3981V16.4855Z" fill="#140202"/>
</svg>
